<svg fill="#c6984f" xmlns="http://www.w3.org/2000/svg"  viewBox="0 0 48 48" width="48px" height="48px"><path d="M 24 4 C 21.391667 4 18.827397 4.5371076 16.566406 5.3984375 A 1.50015 1.50015 0 1 0 17.634766 8.2011719 C 19.573775 7.4625018 21.808333 7 24 7 C 33.386275 7 41 14.613725 41 24 C 41 29.153571 38.700303 33.836676 35.029297 36.957031 A 1.50015 1.50015 0 1 0 36.970703 39.242188 C 41.299697 35.562542 44 30.046429 44 24 C 44 12.986275 35.013725 4 24 4 z M 9.4355469 10.984375 A 1.50015 1.50015 0 0 0 8.3183594 11.576172 C 5.6242206 15.02467 4 19.351163 4 24 C 4 35.013725 12.986275 44 24 44 C 25.633333 44 27.266441 43.781684 28.886719 43.349609 A 1.50015 1.50015 0 1 0 28.113281 40.451172 C 26.733559 40.819098 25.366667 41 24 41 C 14.613725 41 7 33.386275 7 24 C 7 20.048837 8.375779 16.37533 10.681641 13.423828 A 1.50015 1.50015 0 0 0 9.4355469 10.984375 z M 21.103516 15.957031 C 20.389873 15.966128 19.676597 15.999862 18.964844 16.058594 C 17.066835 16.215211 15.180218 16.549094 13.332031 17.058594 A 1.50015 1.50015 0 1 0 14.128906 19.949219 C 20.796159 18.111219 28.02435 18.821382 34.261719 22.074219 A 1.50015 1.50015 0 1 0 35.648438 19.414062 C 31.106773 17.045549 26.099015 15.893354 21.103516 15.957031 z M 21.308594 22.009766 C 20.725031 22.014043 20.140835 22.038263 19.558594 22.082031 C 18.005952 22.198747 16.46251 22.455787 14.947266 22.853516 A 1.50015 1.50015 0 1 0 15.708984 25.753906 C 21.062005 24.34882 26.832615 24.930095 31.841797 27.496094 A 1.50015 1.50015 0 1 0 33.208984 24.826172 C 29.483573 22.917796 25.39353 21.979821 21.308594 22.009766 z M 21.546875 28.017578 C 21.101253 28.016517 20.655896 28.029198 20.210938 28.056641 C 19.02438 28.129821 17.84235 28.304165 16.679688 28.580078 A 1.50015 1.50015 0 1 0 17.373047 31.498047 C 21.352394 30.553701 25.596764 30.99901 29.326172 32.830078 A 1.5002142 1.5002142 0 1 0 30.648438 30.136719 C 27.784174 28.73042 24.666231 28.025008 21.546875 28.017578 z"/></svg>